<svg width="28" height="28" viewBox="0 0 28 28" fill="none" xmlns="http://www.w3.org/2000/svg">
<path fill-rule="evenodd" clip-rule="evenodd" d="M3.79102 6.60858C3.79102 6.12533 4.18277 5.73358 4.66602 5.73358H23.3327C23.8159 5.73358 24.2077 6.12533 24.2077 6.60858C24.2077 7.09183 23.8159 7.48358 23.3327 7.48358H4.66602C4.18277 7.48358 3.79102 7.09183 3.79102 6.60858Z" fill="white"/>
<path fill-rule="evenodd" clip-rule="evenodd" d="M3.79102 14.3626C3.79102 13.8794 4.18277 13.4876 4.66602 13.4876H23.3327C23.8159 13.4876 24.2077 13.8794 24.2077 14.3626C24.2077 14.8459 23.8159 15.2376 23.3327 15.2376H4.66602C4.18277 15.2376 3.79102 14.8459 3.79102 14.3626Z" fill="white"/>
<path fill-rule="evenodd" clip-rule="evenodd" d="M3.79102 21.3915C3.79102 20.9083 4.18277 20.5165 4.66602 20.5165H23.3327C23.8159 20.5165 24.2077 20.9083 24.2077 21.3915C24.2077 21.8748 23.8159 22.2665 23.3327 22.2665H4.66602C4.18277 22.2665 3.79102 21.8748 3.79102 21.3915Z" fill="white"/>
</svg>
