<svg width="623" height="478" viewBox="0 0 623 478" fill="none" xmlns="http://www.w3.org/2000/svg">
<rect width="623" height="478" fill="#DBDBDB"/>
<path d="M208.54 231.06H217.354V253.559H231.076V260.918H208.54V231.06Z" fill="#A2A2A2"/>
<path d="M235.064 231.06H256.468V237.423H243.046V242.186H255.502V248.266H243.046V254.167H256.855V260.918H235.064V231.06Z" fill="#A2A2A2"/>
<path d="M261.054 231.06H270.267L276.676 252.547L283.001 231.06H291.95L281.363 260.918H271.819L261.054 231.06Z" fill="#A2A2A2"/>
<path d="M295.197 231.06H304.011V260.918H295.197V231.06Z" fill="#A2A2A2"/>
<path d="M310.211 231.06H335.116V238.418H326.756V260.918H318.567V238.418H310.207L310.211 231.06Z" fill="#A2A2A2"/>
<path d="M398.057 261.211H348.982C341.941 261.211 335.376 253.878 335.112 247.046C334.877 240.831 335.112 195.615 335.112 195.615H398.054L398.057 261.211Z" fill="#BBBDBF"/>
<path d="M362.949 234.47C360.163 231.81 356.202 230.477 351.067 230.47C346.051 230.47 342.138 231.827 339.33 234.54C336.522 237.253 335.117 241.046 335.116 245.917C335.116 249.406 335.825 252.31 337.244 254.629C338.663 256.948 340.513 258.644 342.796 259.717C345.076 260.788 347.959 261.323 351.447 261.325C354.867 261.325 357.728 260.703 360.031 259.461C362.264 258.284 364.098 256.471 365.299 254.251C366.514 252.02 367.121 249.161 367.12 245.674C367.12 240.865 365.73 237.13 362.949 234.47ZM355.887 252.493C354.763 253.784 353.18 254.429 351.137 254.429C349.147 254.429 347.572 253.77 346.412 252.452C345.251 251.133 344.674 248.967 344.679 245.954C344.679 242.914 345.261 240.734 346.425 239.414C347.589 238.094 349.127 237.434 351.04 237.434C353.046 237.434 354.635 238.082 355.807 239.38C356.979 240.677 357.564 242.731 357.563 245.541C357.566 248.884 357.008 251.2 355.887 252.49V252.493Z" fill="#A2A2A2"/>
<path d="M370.99 231.06H379.213L389.901 247.542V231.06H398.219V260.918H389.901L379.272 244.527V260.918H370.99V231.06Z" fill="#A2A2A2"/>
</svg>
