<svg width="623" height="478" viewBox="0 0 623 478" fill="none" xmlns="http://www.w3.org/2000/svg">
<rect width="623" height="478" fill="#DBDBDB"/>
<path d="M222.459 215.101C217.217 212.782 214.093 211.884 210.989 211.884C207.731 211.884 205.645 213.047 205.645 214.854C205.645 220.274 224.098 218.749 224.098 231.288C224.098 238.203 218.277 242.22 210.192 242.22C203.849 242.22 200.725 240.584 197.127 238.733V230.964C202.317 234.391 205.493 235.602 209.496 235.602C212.973 235.602 214.84 234.391 214.84 232.28C214.84 226.377 196.387 228.541 196.387 215.629C196.387 209.401 201.785 205.278 210.192 205.278C214.249 205.278 217.91 206.127 222.462 208.077V215.101H222.459ZM248.288 240.559C245.212 241.67 242.611 242.203 240.016 242.203C231.422 242.203 225.861 237.213 225.861 229.625C225.861 222.172 231.633 216.911 239.694 216.911C242.177 216.911 245.366 217.544 247.908 218.49V224.182C245.981 223.154 243.839 222.589 241.653 222.531C237.041 222.531 234.074 225.293 234.074 229.558C234.074 233.882 236.992 236.735 241.387 236.735C243.242 236.735 244.889 236.312 248.283 235.045V240.559H248.288ZM315.296 226.828C315.612 223.445 317.583 221.487 320.606 221.487C323.586 221.487 325.59 223.499 325.907 226.828H315.296ZM320.074 216.928C312.535 216.928 307.161 222.234 307.161 229.704C307.161 237.23 312.743 242.212 321.346 242.212C323.253 242.212 327.862 242.213 332.252 238.973V234.201C328.657 236.755 326.277 237.634 323.206 237.634C318.358 237.634 315.396 235.134 315.127 230.867H332.684C333.05 221.957 327.184 216.918 320.069 216.918L320.074 216.928ZM335.657 241.757H343.333V217.366H335.662L335.657 241.757ZM364.697 235.092C363.1 236.525 361.769 237.102 360.13 237.102C356.515 237.102 354.227 234.132 354.227 229.691C354.227 224.823 356.515 222.019 360.386 222.019C361.769 222.019 363.577 222.655 364.697 223.452V235.092ZM364.697 205.729V218.438C362.72 217.443 360.537 216.921 358.322 216.911C351.319 216.911 346.474 222.068 346.474 229.533C346.474 236.837 351.319 242.208 357.898 242.208C360.503 242.208 362.517 241.527 364.705 239.787V241.75H372.381V205.729H364.702H364.697ZM383.744 226.828C384.062 223.445 386.024 221.487 389.041 221.487C392.021 221.487 394.05 223.499 394.368 226.828H383.744ZM388.517 216.928C380.978 216.928 375.619 222.234 375.619 229.704C375.619 237.23 381.201 242.212 389.796 242.212C391.698 242.212 396.317 242.213 400.723 238.973V234.201C397.122 236.755 394.738 237.634 391.654 237.634C386.834 237.634 383.856 235.134 383.588 230.867H401.145C401.51 221.957 395.639 216.918 388.527 216.918" fill="#A2A2A2"/>
<path d="M412.628 224.351H412.74C415.019 219.274 417.57 216.893 420.53 216.893C422.065 216.893 423.388 217.477 425.616 219.121L423.495 225.883C421.479 224.615 420.155 224.086 418.938 224.086C416.12 224.086 414.319 226.731 412.62 231.206V241.723H404.922V217.341H412.62V224.351H412.628ZM343.698 207.107C344.418 209.001 343.122 211.644 340.807 213.005C338.493 214.366 336.032 213.933 335.317 212.037C334.602 210.142 335.881 207.493 338.2 206.139C340.519 204.786 342.97 205.206 343.698 207.107Z" fill="#A2A2A2"/>
<path d="M275.945 226.234C275.945 219.623 271.438 216.918 266.99 216.918C263.966 216.918 261.48 218.19 259.255 220.994H259.151V205.729H251.465V241.688H259.151V226.234C260.948 223.64 262.483 222.534 264.284 222.534C266.675 222.534 268.257 224.227 268.257 227.87V236.438C270.655 235.185 273.256 234.362 275.94 234.008V226.234H275.945ZM295.216 216.911C292.087 216.911 289.698 218.069 287.252 220.858V217.366H279.573V233.948C282.236 234.211 285.63 235.433 287.257 237.438V226.053C289.276 223.034 290.709 222.026 292.618 222.026C294.796 222.026 296.448 223.459 296.448 226.897V241.708H304.131V226.264C304.131 219.086 299.043 216.923 295.221 216.923L295.216 216.911ZM308.383 248.712H299.448V255.033H308.06V257.755H299.448V264.245H308.636V266.967H296.455V245.992H308.375V248.699L308.383 248.712ZM315.666 266.967H318.398V245.987H315.666V266.967ZM331.94 255.211C333.879 255.211 335.081 256.54 335.168 258.632H328.215C328.592 256.449 329.851 255.211 331.94 255.211ZM328.157 260.453H337.9C337.9 255.335 335.553 252.865 331.877 252.865C328.066 252.865 325.421 255.672 325.421 259.862C325.421 263.691 327.812 267.225 332.126 267.225C334.473 267.225 335.99 266.705 337.669 265.594V262.953C336.047 264.012 334.472 264.621 332.816 264.621C330.166 264.621 328.594 263.205 328.167 260.463L328.157 260.453ZM355.765 256.768C354.193 255.696 353.142 255.382 351.945 255.382C349.442 255.382 347.709 257.295 347.709 260.097C347.709 262.953 349.554 264.673 352.402 264.673C353.574 264.673 354.692 264.369 356.07 263.755V266.443C355.149 266.876 353.393 267.235 351.945 267.235C347.803 267.235 344.93 264.398 344.93 260.342C344.93 255.763 347.557 252.875 351.757 252.875C353.363 252.875 354.443 253.246 355.765 253.825V256.768ZM368.223 253.137H372.614V255.595H368.214V262.693C368.214 264.317 369.396 264.787 370.2 264.787C371.194 264.787 372.209 264.443 373.317 263.76V266.317C372.284 266.857 371.146 267.17 369.982 267.235C367.002 267.235 365.497 265.393 365.497 262.899V255.595H363.085V255.29L368.221 250.281V253.137H368.223ZM383.069 253.137V256.34H383.123C384.519 253.89 385.855 252.875 387.134 252.875C388.249 252.875 389.29 253.395 390.437 254.476L388.989 256.877C388.155 256.058 387.079 255.491 386.429 255.491C384.546 255.491 383.069 257.399 383.069 259.763V266.967H380.337V253.137H383.069ZM418.459 256.768C416.879 255.696 415.829 255.382 414.625 255.382C412.141 255.382 410.403 257.295 410.403 260.097C410.403 262.953 412.251 264.673 415.082 264.673C416.256 264.673 417.366 264.369 418.764 263.755V266.443C417.823 266.876 416.065 267.235 414.62 267.235C410.485 267.235 407.599 264.398 407.599 260.342C407.599 255.763 410.237 252.875 414.438 252.875C416.048 252.875 417.115 253.246 418.454 253.825V256.768H418.459ZM397.668 266.967H400.4V253.14H397.668V266.967Z" fill="#A2A2A2"/>
<path d="M400.504 248.158C400.773 248.826 400.306 249.769 399.484 250.249C398.662 250.729 397.778 250.578 397.529 249.907C397.281 249.237 397.73 248.296 398.562 247.814C399.394 247.331 400.256 247.482 400.504 248.158ZM278.106 249.276C277.609 249.276 277.42 249.355 277.222 249.573C277.141 249.672 277.094 249.793 277.085 249.92L274.634 259.189C274.058 262.438 270.052 265.686 264.83 265.686H257.569L258.83 260.921H263.494C263.714 260.925 263.932 260.88 264.132 260.79C264.333 260.699 264.511 260.566 264.654 260.399C264.8 260.244 264.898 260.049 264.937 259.84L266.874 251.741C267.442 248.487 270.892 244.896 276.112 244.896H283.547L282.596 249.276H278.106ZM279.78 254.924L280.609 251.925H288.153C289.085 247.578 288.352 243.549 285.705 240.911C280.346 235.57 269.136 237.384 260.782 245.348C259.53 246.558 258.39 247.876 257.375 249.289H261.922L260.864 252.293H255.44C254.921 253.21 254.461 254.159 254.062 255.135H260.504L259.473 258.139H253.138C252.056 262.73 252.746 267.012 255.47 269.732C260.762 275.004 271.94 273.15 280.286 265.188C281.682 263.845 282.941 262.369 284.046 260.78H278.205L279.094 257.783H285.918C286.415 256.859 286.856 255.907 287.239 254.932H279.78" fill="#A2A2A2"/>
</svg>
