<svg width="623" height="478" viewBox="0 0 623 478" fill="none" xmlns="http://www.w3.org/2000/svg">
<rect width="623" height="478" fill="#DBDBDB"/>
<path fill-rule="evenodd" clip-rule="evenodd" d="M225.002 259.825H235.627V224.326H225.002V259.825ZM244.106 259.825H271.621V252.77H254.735V245.507H269.527V238.66H254.735V231.397H271.621V224.342H244.106V259.825ZM300.7 245.397L291.325 224.326H277.46V259.825H286.002V238.649L295.377 259.825H302.358L312.469 238.131V259.825H323.094V224.326H310.496L300.704 245.397H300.7ZM390.629 246.124L377.296 224.336H365.629V259.825H373.129V237.923L386.562 259.825H398.133V224.326H390.633L390.629 246.124ZM331.462 259.819H358.971V252.764H342.096V245.501H356.887V238.654H342.096V231.391H358.971V224.336H331.46V259.825L331.462 259.819ZM213.546 240.616C210.523 239.268 205.837 236.881 202.602 235.429C199.567 234.064 199.477 226.921 216.977 232.211V225.469C213.329 224.224 203.325 221.836 195.823 225.988C188.321 230.14 190.092 240.415 195.823 243.833C198.323 245.181 201.762 246.429 206.14 248.296C209.767 249.844 211.973 257.741 191.235 252.344V259.3C195.508 260.856 211.142 262.516 215.727 257.432C221.452 251.081 218.852 242.795 213.54 240.625L213.546 240.616ZM426.737 240.616C423.715 239.268 419.029 236.881 415.796 235.429C412.76 234.064 412.671 226.921 430.171 232.211V225.469C426.523 224.224 416.521 221.836 409.017 225.988C401.512 230.14 403.283 240.415 409.017 243.833C411.517 245.181 414.956 246.429 419.333 248.296C422.96 249.844 425.167 257.741 404.429 252.344V259.3C408.704 260.856 424.337 262.516 428.921 257.432C434.646 251.081 432.046 242.795 426.731 240.625L426.737 240.616Z" fill="#A2A2A2"/>
</svg>
