<svg width="623" height="478" viewBox="0 0 623 478" fill="none" xmlns="http://www.w3.org/2000/svg">
<rect width="623" height="478" fill="#DBDBDB"/>
<path d="M226.661 264.312C219.76 269.663 211.158 272.764 201.807 272.764C179.253 272.764 161 254.511 161 231.957C161 209.253 179.253 191 201.807 191C224.361 191 242.614 209.253 242.614 231.807C242.614 241.158 239.563 249.76 234.162 256.661C236.163 258.211 245.514 265.112 246.464 266.313C246.164 262.912 244.914 252.06 244.914 252.06L279.12 277.714L279.27 278.465L253.966 267.263L256.266 286.616L226.661 264.312ZM216.859 256.661C212.109 253.11 193.705 239.758 193.705 239.758H211.658C212.709 240.508 220.71 246.509 224.711 249.56C228.411 244.659 230.712 238.508 230.712 231.907C230.712 215.804 217.809 202.752 201.857 202.752C185.904 202.752 172.952 215.854 172.952 231.957C172.952 248.06 185.854 261.112 201.807 261.112C207.308 260.962 212.559 259.411 216.859 256.661Z" fill="#BBBDBF"/>
<path d="M294.672 226.406L289.771 203.852H296.973L298.523 214.454C298.823 216.904 299.123 218.905 299.423 220.455H299.573C300.023 218.905 300.823 217.055 301.873 214.454L306.324 203.852H313.525L297.573 235.658H289.421L294.672 226.406Z" fill="#A2A2A2"/>
<path d="M269.468 194.651L267.018 207.703H279.47L281.92 194.651H288.821L282.52 228.106H275.619L278.22 214.004H265.767L263.167 228.106H256.266L262.567 194.651C262.567 194.651 269.468 194.651 269.468 194.651Z" fill="#A2A2A2"/>
<path d="M338.53 228.106L341.28 213.504C341.88 209.803 342.18 205.853 342.53 203.852H348.531C348.381 205.552 348.231 207.053 348.081 208.903H348.231C349.932 205.702 352.682 203.402 355.883 203.402C356.333 203.402 356.783 203.402 357.283 203.402L355.883 210.153C355.582 210.153 355.132 210.153 354.832 210.153C350.382 210.153 348.081 214.304 347.331 219.055L345.631 228.256H338.58V228.106H338.53Z" fill="#A2A2A2"/>
<path d="M366.484 228.706C360.333 228.706 356.183 224.706 356.183 218.755C356.183 210.453 362.033 203.402 370.585 203.402C377.036 203.402 380.887 207.853 380.887 213.354C380.887 221.955 374.786 228.706 366.484 228.706ZM367.384 223.355C371.385 223.355 373.685 217.504 373.685 213.404C373.685 211.103 372.635 208.653 369.685 208.653C365.534 208.653 363.234 214.654 363.234 218.605C363.284 221.355 364.784 223.355 367.384 223.355Z" fill="#A2A2A2"/>
<path d="M339.33 193.901L334.579 218.905C333.979 221.955 333.529 225.356 333.529 228.106H327.228L327.528 224.106H327.378C325.227 227.306 322.327 228.706 319.376 228.706C315.226 228.706 311.875 225.506 311.875 219.655C311.875 211.203 318.026 203.402 327.078 203.402C328.128 203.402 329.378 203.552 330.478 204.002L332.479 193.851C332.429 193.901 339.33 193.901 339.33 193.901ZM329.478 209.403C328.878 208.953 327.778 208.503 326.578 208.503C322.127 208.503 319.076 213.554 319.076 218.305C319.076 221.205 320.327 223.055 322.477 223.055C324.627 223.055 327.228 220.755 328.178 216.004L329.478 209.403Z" fill="#A2A2A2"/>
<path d="M363.434 244.859L360.383 261.262C359.783 264.312 359.483 266.963 359.133 269.113H352.982L353.432 265.113H353.282C350.832 268.313 347.931 269.713 344.981 269.713C341.13 269.713 338.68 267.563 338.68 262.962C338.68 261.562 338.83 260.212 339.13 258.511L341.73 245.009H348.631L346.181 258.061C346.031 259.112 345.881 260.362 345.881 261.262C345.881 262.962 346.481 264.162 348.481 264.162C350.932 264.162 353.532 261.262 354.482 256.311L356.633 244.959H363.384V244.859H363.434Z" fill="#A2A2A2"/>
<path d="M457.499 268.313C455.949 269.063 453.499 269.563 450.598 269.563C444.597 269.563 440.447 265.863 440.447 259.612C440.447 251.01 447.048 244.259 456.099 244.259C458.25 244.259 459.95 244.709 461 245.009L459.3 250.21C458.4 249.91 457.449 249.61 455.899 249.61C450.698 249.61 447.448 254.061 447.448 258.661C447.448 262.062 449.598 263.862 452.349 263.862C454.499 263.862 456.049 263.412 457.249 262.812L457.499 268.313Z" fill="#A2A2A2"/>
<path d="M388.138 268.013L394.439 234.708H401.34L398.89 247.91H399.04C400.44 245.759 403.49 244.059 406.541 244.059C411.592 244.059 414.042 247.91 414.042 252.51C413.592 266.013 401.94 273.064 388.138 268.013ZM395.639 264.012C401.94 266.763 406.541 259.562 406.541 253.861C406.541 251.41 405.291 249.56 403.34 249.56C400.59 249.56 397.839 252.31 396.889 257.411L395.639 264.012Z" fill="#A2A2A2"/>
<path d="M438.146 257.261C439.196 252.66 439.046 244.209 429.845 244.209C420.943 244.209 415.743 252.06 415.743 259.412C415.743 265.563 419.143 269.563 426.194 269.563C428.945 269.563 432.495 268.963 435.096 267.713L434.646 262.662C432.795 263.912 422.694 266.663 422.344 259.612L438.146 257.261ZM422.944 255.111C423.094 253.411 424.944 249.76 428.295 249.26C431.495 248.96 432.745 251.56 432.295 253.711L422.944 255.111Z" fill="#A2A2A2"/>
<path d="M317.676 269.713C311.975 269.713 304.324 266.163 304.324 255.611C304.324 245.459 310.775 235.208 322.577 235.208C331.778 235.208 335.929 241.809 335.929 249.16C335.929 256.811 331.028 262.812 327.928 264.512C328.228 264.512 330.528 263.762 333.129 263.762C333.129 263.762 334.529 263.762 335.279 263.762L334.229 269.113C333.779 269.113 330.228 269.113 325.777 269.113C322.277 269.113 322.277 269.713 317.676 269.713ZM318.726 263.862C324.877 263.862 328.678 255.561 328.678 249.11C328.678 245.259 327.128 240.958 321.777 240.958C315.476 240.958 311.625 249.41 311.625 255.711C311.525 260.362 313.825 263.862 318.726 263.862Z" fill="#A2A2A2"/>
<path d="M387.038 234.708L380.887 241.909H375.986L380.587 234.708H387.038ZM386.888 257.261C387.938 252.66 387.788 244.209 378.586 244.209C369.685 244.209 364.484 252.06 364.484 259.412C364.484 265.563 367.885 269.563 374.936 269.563C377.686 269.563 381.237 268.963 383.837 267.713L383.387 262.662C381.537 263.912 371.435 266.663 371.085 259.612L386.888 257.261ZM371.535 255.111C371.685 253.411 373.536 249.76 376.886 249.26C380.087 248.96 381.337 251.56 380.737 253.711L371.535 255.111Z" fill="#A2A2A2"/>
</svg>
