<svg width="153" height="40" viewBox="0 0 153 40" fill="none" xmlns="http://www.w3.org/2000/svg">
<g clip-path="url(#clip0)">
<path d="M42.7576 28.7971L45.4879 14.4758L58.2636 10.9213L57.3364 15.9183H51.4636L51.2061 17.3607H56.7697L55.8939 22.1516H50.2273L49.9182 23.7486H55.8424L54.8636 28.7971H42.7576V28.7971ZM24.6758 24.1607L23.8 28.7971H19.0606L19.9364 24.1607H24.6758ZM21.2242 10.8698L17.8242 28.7971H11.6424L12.8273 22.5122H7.36667L6.18182 28.7971H0L3.4 10.8698H9.63333L8.5 17.0001H13.9091L15.0424 10.8698H21.2242ZM43.6333 14.991C43.0667 15.5577 42.3455 16.0213 41.5727 16.4334C43.0667 17.0001 43.9424 18.7001 43.9424 20.5546C43.9424 25.088 39.6152 28.9001 33.1242 28.9001C31.4242 28.9001 28.797 28.8486 24.9333 28.8486L26.6848 19.7819L43.6333 14.991ZM37.1939 20.9152C37.1939 19.8849 36.4212 19.3183 35.0303 19.3183C34.3091 19.3183 33.4333 19.3183 33.0212 19.3698L32.2485 23.594C32.6091 23.6455 33.2788 23.6455 33.6394 23.6455C36.0091 23.6455 37.1939 22.3061 37.1939 20.9152ZM38.6879 11.9001C38.6879 10.9728 37.9152 10.5092 36.5242 10.5092C35.7515 10.5092 35.2364 10.5607 34.7212 10.5607L33.9485 14.4758C34.3091 14.5274 34.6182 14.5274 34.9788 14.5274C35.1333 14.5274 35.2879 14.5274 35.4424 14.5274L27.0455 17.5668L29.3636 5.56373C31.7333 5.40918 35.6485 5.35767 38.1212 5.35767C42.4485 5.35767 45.5394 6.64555 45.5394 10.4062C45.5394 10.6122 45.5394 10.7668 45.5394 10.9213L37.8636 13.7031C38.3788 13.2395 38.6879 12.6213 38.6879 11.9001ZM77.8909 22.1001L77.6333 19.8334C77.5818 19.2152 77.4788 18.4425 77.4788 17.7213C77.0667 18.5971 76.7576 19.2152 76.5 19.8334L75.4182 22.1001H77.8909ZM107.203 10.8698L103.803 28.7971H95.4576L93.397 22.3062C93.1394 21.5334 92.8303 20.2971 92.6242 19.4213C92.5212 19.988 92.4697 20.4001 92.3151 21.0183L90.8212 28.7971H85.2576H84.8455H78.6636L78.4061 26.5304H73.1L71.9667 28.7971H67.0212H65.4758H55.9455L59.3455 10.8698H65.5788L63.2091 23.0789H68.103L67.897 24.2637L75.0061 10.8698H82.5788L85.103 27.5607L88.297 10.8698H96.6424L98.6 17.0001C98.9091 17.9789 99.2182 19.0092 99.4758 20.194C99.6303 19.3183 99.7848 18.494 99.9394 17.7213L101.227 10.8698H107.203V10.8698ZM121.267 16.588C120.082 16.1243 118.639 15.8668 117.455 15.8668C114.003 15.8668 112.303 18.4425 112.303 21.3274C112.303 22.6152 113.179 23.491 114.261 23.491C114.982 23.491 115.342 23.4395 115.652 23.388L116.527 18.8546H122.761L121.112 27.6122C118.588 28.6425 115.961 29.2092 113.745 29.2092C108.8 29.2092 105.452 26.788 105.452 22.1516C105.452 15.6092 110.5 10.5092 117.3 10.5092C119.052 10.5092 120.752 10.7152 122.348 11.0758L121.267 16.588ZM137.03 10.8698L136.052 15.8668H130.179L129.921 17.3092H135.485L134.609 22.1001H128.994L128.685 23.6971H134.609L133.63 28.7455H121.473L124.873 10.8183H137.03V10.8698ZM153 15.5062C153 19.0092 150.682 20.8637 148.879 21.6365C149.136 22.2031 149.342 22.8213 149.652 23.7486L151.248 28.7971H144.088L142.8 22.6152H142.542L141.358 28.7971H135.124L138.524 10.8698C140.327 10.7668 143.985 10.7152 146.406 10.7152C150.888 10.7152 153 12.5183 153 15.5062ZM146.252 16.691C146.252 16.1243 145.788 15.5577 144.861 15.5577C144.552 15.5577 144.191 15.5577 143.933 15.6092L143.367 18.7001C143.676 18.7516 144.036 18.7516 144.242 18.7516C145.221 18.7516 146.252 17.8758 146.252 16.691Z" fill="#16191B"/>
<path d="M60.5817 9.27287C60.7878 9.32439 60.7878 9.53045 60.5817 9.58196L22.1514 20.3486C21.9453 20.4001 21.8423 20.0911 22.0484 20.0395L49.2484 10.2517L46.312 9.3759C46.1574 9.32439 46.1059 9.11833 46.312 9.06681L72.9453 0.000144751C73.1514 -0.0513704 73.2544 0.206205 73.0484 0.309236L55.8938 8.03651L60.5817 9.27287Z" fill="#16191B"/>
<path d="M45.2818 37.9667C45.3333 37.5546 45.1273 37.2455 44.6121 37.0394L43.9424 36.7818L43.7364 36.6788C42.9636 36.3182 42.603 35.8546 42.6546 35.1849C42.7061 34.8758 42.8091 34.5667 42.9636 34.3606C43.1697 34.103 43.4273 33.9485 43.7364 33.794C44.0455 33.6394 44.4061 33.5879 44.7667 33.5879C45.1273 33.5879 45.4364 33.6909 45.694 33.794C45.9515 33.9485 46.1576 34.1546 46.3121 34.4121C46.4667 34.6697 46.5182 34.9788 46.5182 35.2879H45.797C45.8485 34.9273 45.7455 34.6697 45.5394 34.4637C45.3333 34.2576 45.0758 34.1546 44.7667 34.1546C44.4061 34.1546 44.097 34.2576 43.8909 34.4121C43.6333 34.5667 43.5303 34.8243 43.4788 35.1333C43.4273 35.5455 43.6849 35.803 44.2 36.0091L44.7667 36.2152L45.0758 36.3182C45.797 36.6788 46.1576 37.1424 46.1061 37.8121C46.0546 38.1212 45.9515 38.4303 45.797 38.6364C45.5909 38.894 45.3333 39.0485 45.0243 39.203C44.7152 39.3061 44.3546 39.4091 43.994 39.4091C43.6333 39.4091 43.3243 39.3061 43.0152 39.203C42.7061 39.0485 42.5 38.8424 42.3455 38.5849C42.1909 38.3273 42.1394 38.0182 42.1394 37.7091H42.8606C42.8606 38.0697 42.9121 38.3273 43.1182 38.5333C43.3243 38.7394 43.6333 38.8424 43.994 38.8424C44.3546 38.8424 44.6636 38.7909 44.9212 38.5849C45.0758 38.4818 45.2303 38.2758 45.2818 37.9667Z" fill="#16191B"/>
<path d="M50.9483 36.7818H48.5271L48.1665 38.7909H50.9483L50.8453 39.4091H47.2908L48.2696 33.6909H51.7726L51.6696 34.3091H48.9393L48.6302 36.1636H51.0514L50.9483 36.7818Z" fill="#16191B"/>
<path d="M54.8636 37.1424H53.5242L53.1121 39.4606H52.3909L53.3697 33.7424H55.0697C55.6878 33.7424 56.1515 33.897 56.4606 34.2061C56.7697 34.5152 56.9242 34.9273 56.8727 35.4424C56.8212 35.803 56.7181 36.1121 56.4606 36.3697C56.2545 36.6273 55.9454 36.8333 55.5333 36.9879L56.4091 39.4091V39.4606H55.6363L54.8636 37.1424ZM53.6272 36.5243H54.7091C55.0697 36.5243 55.3787 36.4212 55.6878 36.2152C55.9454 36.0091 56.1 35.7515 56.1515 35.3909C56.203 35.0818 56.1 34.8242 55.9454 34.6182C55.7909 34.4121 55.5333 34.3091 55.1727 34.3091H54.0394L53.6272 36.5243Z" fill="#16191B"/>
<path d="M59.8091 38.4303L62.1273 33.7424H62.9515L60.0152 39.4606H59.3455L58.2122 33.7424H58.9849L59.8091 38.4303Z" fill="#16191B"/>
<path d="M64.188 39.4606H63.4668L64.4456 33.7424H65.1668L64.188 39.4606Z" fill="#16191B"/>
<path d="M70.5243 37.6061C70.4213 38.1727 70.1637 38.6879 69.7 38.997C69.2879 39.3576 68.7728 39.5121 68.1546 39.5121C67.794 39.5121 67.4849 39.4091 67.2273 39.2546C66.9697 39.1 66.7637 38.8424 66.6091 38.5333C66.4546 38.2243 66.4031 37.8636 66.3516 37.503C66.3516 37.297 66.3516 37.0909 66.4031 36.8849L66.4546 36.4212C66.5576 35.5455 66.8667 34.8758 67.3819 34.4121C67.8455 33.897 68.4637 33.6909 69.1334 33.6909C69.6485 33.6909 70.1122 33.897 70.4213 34.2061C70.7303 34.5667 70.8849 35.0303 70.9364 35.597H70.2152C70.1637 34.7727 69.8546 34.3606 69.2879 34.3091H69.1334C68.6182 34.3091 68.2061 34.4636 67.897 34.8758C67.5879 35.2364 67.3304 35.803 67.2788 36.4212L67.1758 37.0394V37.4C67.1758 37.8636 67.2273 38.2758 67.4334 38.5333C67.6394 38.8424 67.897 38.9455 68.2576 38.997C68.6697 38.997 68.9788 38.8939 69.2364 38.6879C69.494 38.4818 69.7 38.1727 69.8546 37.7091L70.5243 37.6061Z" fill="#16191B"/>
<path d="M75.4698 36.7818H73.0486L72.688 38.7909H75.4698L75.3668 39.4091H71.8123L72.791 33.6909H76.2941L76.191 34.3091H73.4607L73.1517 36.1636H75.5729L75.4698 36.7818Z" fill="#16191B"/>
<path d="M80.1576 37.9667C80.2091 37.5546 80.003 37.2455 79.4879 37.0394L78.8182 36.7818L78.6121 36.6788C77.8394 36.3182 77.4788 35.8546 77.5303 35.1849C77.5303 34.8758 77.6848 34.5667 77.8394 34.3606C78.0454 34.103 78.303 33.9485 78.6121 33.794C78.9212 33.6394 79.2818 33.5879 79.6424 33.5879C80.003 33.5879 80.3121 33.6909 80.5697 33.794C80.8273 33.9485 81.0333 34.1546 81.1879 34.4121C81.3424 34.6697 81.3939 34.9788 81.3939 35.2879H80.6727C80.7242 34.9273 80.6212 34.6697 80.4151 34.4637C80.2091 34.2576 79.9515 34.1546 79.6424 34.1546C79.2818 34.1546 78.9727 34.2576 78.7666 34.4121C78.5091 34.5667 78.406 34.8243 78.3545 35.1333C78.303 35.5455 78.5606 35.803 79.0757 36.0091L79.6424 36.2152L79.9515 36.3182C80.6727 36.6788 81.0333 37.1424 80.9818 37.8121C80.9303 38.1212 80.8273 38.4303 80.6727 38.6364C80.4667 38.894 80.2091 39.0485 79.9 39.203C79.5909 39.3061 79.2303 39.4091 78.8697 39.4091C78.5091 39.4091 78.2 39.3061 77.8909 39.203C77.5818 39.0485 77.3757 38.8424 77.2212 38.5849C77.0666 38.3273 77.0151 38.0182 77.0151 37.7091H77.7363C77.7363 38.0697 77.7879 38.3273 77.9939 38.5333C78.2 38.7394 78.5091 38.8424 78.8697 38.8424C79.2303 38.8424 79.5394 38.7909 79.7969 38.5849C80.003 38.4818 80.106 38.2758 80.1576 37.9667Z" fill="#16191B"/>
<path d="M88.4 36.7818H85.9788L85.6182 38.7909H88.4L88.297 39.4091H84.7424L85.7212 33.6909H89.2243L89.1212 34.3091H86.3909L86.0818 36.1636H88.503L88.4 36.7818Z" fill="#16191B"/>
<path d="M94.1698 39.4606H93.4486L91.388 35.0303L90.6153 39.4606H89.894L90.8728 33.7424H91.594L93.6547 38.2242L94.4274 33.7424H95.1486L94.1698 39.4606Z" fill="#16191B"/>
<path d="M102.258 36.7819H99.8365L99.4759 38.791H102.258L102.155 39.4091H98.6001L99.5789 33.691H103.082L102.979 34.3091H100.249L99.9395 36.1637H102.361L102.258 36.7819ZM101.949 32.1455H102.876L101.691 33.2788H101.073L101.949 32.1455Z" fill="#16191B"/>
<path d="M104.576 38.8424H107.203L107.1 39.4606H103.751L104.73 33.7424H105.451L104.576 38.8424Z" fill="#16191B"/>
<path d="M112.2 36.7818H109.779L109.418 38.7909H112.2L112.097 39.4091H108.542L109.521 33.6909H113.024L112.921 34.3091H110.191L109.882 36.1636H112.303L112.2 36.7818Z" fill="#16191B"/>
<path d="M118.021 37.6061C117.918 38.1727 117.661 38.6879 117.197 38.997C116.733 39.3061 116.27 39.5121 115.651 39.5121C115.291 39.5121 114.982 39.4091 114.724 39.2546C114.467 39.1 114.261 38.8424 114.106 38.5333C113.951 38.2243 113.9 37.8636 113.848 37.503C113.848 37.297 113.848 37.0909 113.9 36.8849L113.951 36.4212C114.054 35.5455 114.364 34.8758 114.879 34.4121C115.342 33.897 115.961 33.6909 116.63 33.6909C117.145 33.6909 117.609 33.897 117.918 34.2061C118.227 34.5667 118.382 35.0303 118.433 35.597H117.712C117.661 34.7727 117.351 34.3606 116.785 34.3091H116.63C116.115 34.3091 115.703 34.4636 115.394 34.8758C115.085 35.2364 114.827 35.803 114.776 36.4212L114.673 37.0394V37.4C114.673 37.8636 114.724 38.2758 114.93 38.5333C115.136 38.8424 115.394 38.9455 115.754 38.997C116.167 38.997 116.476 38.8939 116.733 38.6879C116.991 38.4818 117.197 38.1727 117.351 37.7091L118.021 37.6061Z" fill="#16191B"/>
<path d="M123.997 34.3606H122.194L121.318 39.4606H120.597L121.473 34.3606H119.67L119.773 33.7424H124.048L123.997 34.3606Z" fill="#16191B"/>
<path d="M127.036 37.1424H125.697L125.285 39.4606H124.564L125.543 33.7424H127.243C127.861 33.7424 128.324 33.897 128.633 34.2061C128.943 34.5152 129.097 34.9273 129.046 35.4424C128.994 35.803 128.891 36.1121 128.633 36.3697C128.427 36.6273 128.118 36.8333 127.706 36.9879L128.582 39.4091V39.4606H127.809L127.036 37.1424ZM125.8 36.5243H126.882C127.243 36.5243 127.603 36.4212 127.861 36.2152C128.118 36.0091 128.273 35.7515 128.324 35.3909C128.376 35.0818 128.273 34.8242 128.118 34.6182C127.964 34.4121 127.706 34.3091 127.346 34.3091H126.212L125.8 36.5243Z" fill="#16191B"/>
<path d="M130.797 39.4606H130.076L131.054 33.7424H131.776L130.797 39.4606Z" fill="#16191B"/>
<path d="M137.133 37.6061C137.03 38.1727 136.773 38.6879 136.309 38.997C135.897 39.3576 135.382 39.5121 134.763 39.5121C134.403 39.5121 134.094 39.4091 133.836 39.2546C133.579 39.1 133.373 38.8424 133.218 38.5333C133.063 38.2243 133.012 37.8636 132.96 37.503C132.96 37.297 132.96 37.0909 133.012 36.8849L133.063 36.4212C133.167 35.5455 133.476 34.8758 133.991 34.4121C134.454 33.897 135.073 33.6909 135.742 33.6909C136.257 33.6909 136.721 33.897 137.03 34.2061C137.339 34.5667 137.494 35.0303 137.545 35.597H136.824C136.773 34.7727 136.463 34.3606 135.897 34.3091H135.742C135.227 34.3091 134.815 34.4636 134.506 34.8758C134.197 35.2364 133.939 35.803 133.888 36.4212L133.785 37.0394V37.4C133.785 37.8636 133.836 38.2758 134.042 38.5333C134.248 38.8424 134.506 38.9455 134.866 38.997C135.279 38.997 135.588 38.8939 135.845 38.6879C136.103 38.4818 136.309 38.1727 136.463 37.7091L137.133 37.6061Z" fill="#16191B"/>
<path d="M139.297 39.4606H138.576L139.554 33.7424H140.276L139.297 39.4606Z" fill="#16191B"/>
<path d="M145.891 34.3606H144.088L143.212 39.4606H142.491L143.367 34.3606H141.563L141.667 33.7424H145.942L145.891 34.3606Z" fill="#16191B"/>
<path d="M150.064 36.7819H147.642L147.282 38.791H150.064L149.961 39.4091H146.406L147.385 33.691H150.888L150.785 34.3091H148.054L147.745 36.1637H150.167L150.064 36.7819ZM149.754 32.1455H150.682L149.497 33.2788H148.879L149.754 32.1455Z" fill="#16191B"/>
</g>
<defs>
<clipPath id="clip0">
<rect width="153" height="39.5121" fill="white"/>
</clipPath>
</defs>
</svg>
